<?xml version="1.0" encoding="UTF-8"?> <svg xmlns="http://www.w3.org/2000/svg" width="1551" height="891" version="1.1" style=""><rect id="backgroundrect" width="100%" height="100%" x="0" y="0" fill="none" stroke="none"></rect><g class="currentLayer" style=""><title>Layer 1</title><g id="#bdcb40ff" class="selected" fill="#ffffff" fill-opacity="1"><path fill="#ffffff" opacity="1.00" d=" M 194.56 54.79 C 229.17 51.20 265.32 57.61 295.33 75.66 C 318.32 89.37 337.30 109.61 349.50 133.44 C 357.70 149.25 363.12 166.49 365.38 184.15 C 366.70 194.40 368.62 204.62 368.73 214.99 C 368.58 300.36 368.72 385.74 368.65 471.11 C 368.47 480.13 364.80 489.05 358.54 495.56 C 349.11 505.56 332.37 507.66 320.81 500.21 C 311.57 494.46 305.13 483.98 305.25 472.98 C 305.02 385.99 305.32 298.99 305.07 212.00 C 304.76 191.43 299.39 170.50 287.45 153.53 C 277.44 139.25 262.69 128.56 246.25 122.86 C 222.20 114.47 194.86 115.74 171.79 126.61 C 157.90 133.16 145.58 143.41 137.53 156.58 C 124.66 177.15 120.74 202.08 121.65 226.00 C 121.70 309.32 121.63 392.65 121.69 475.98 C 120.85 493.71 102.03 507.87 84.76 504.19 C 72.01 502.09 61.26 491.07 60.07 478.12 C 60.08 387.08 60.14 296.02 60.03 204.97 C 60.65 175.00 69.28 145.01 85.90 119.96 C 94.11 107.46 104.60 96.60 116.05 87.04 C 138.34 68.96 166.10 57.97 194.56 54.79 Z" id="svg_1" fill-opacity="1"></path><path fill="#ffffff" opacity="1.00" d=" M 513.68 64.76 C 554.64 48.84 602.09 50.37 641.89 69.05 C 666.66 80.61 687.97 99.46 702.53 122.59 C 713.80 140.68 720.70 161.22 724.35 182.15 C 727.38 198.90 727.92 215.97 727.67 232.96 C 727.67 311.99 727.66 391.01 727.67 470.03 C 727.82 480.79 723.31 491.92 714.57 498.49 C 709.42 502.13 703.35 504.87 696.95 504.93 C 680.34 505.28 664.67 490.81 664.42 474.06 C 663.85 421.16 664.57 368.25 664.08 315.35 C 603.11 315.06 542.15 314.88 481.19 315.42 C 480.28 368.95 481.13 422.49 480.74 476.02 C 480.11 492.37 464.24 505.97 448.07 504.62 C 436.62 503.74 425.37 496.63 420.99 485.81 C 418.85 480.82 419.26 475.31 419.25 470.02 C 418.73 385.35 419.19 300.68 419.07 216.00 C 418.30 181.74 426.87 146.73 446.22 118.17 C 462.73 94.22 486.51 75.24 513.68 64.76 M 520.52 132.50 C 505.20 142.36 493.91 157.77 487.86 174.85 C 479.22 199.18 480.10 225.47 481.32 250.88 C 542.27 251.64 603.22 251.31 664.16 251.08 C 664.15 226.67 666.26 201.60 658.96 177.92 C 653.00 159.01 640.44 142.01 623.53 131.51 C 592.73 112.42 550.92 112.74 520.52 132.50 Z" id="svg_2" fill-opacity="1"></path><path fill="#ffffff" opacity="1.00" d=" M 910.53 54.75 C 949.10 50.71 989.68 59.62 1021.15 82.82 C 1048.02 101.37 1066.63 130.25 1075.78 161.32 C 1079.02 171.93 1080.91 182.89 1081.65 193.94 C 1084.66 227.89 1083.67 262.00 1083.49 296.03 C 1083.48 355.33 1083.88 414.64 1083.46 473.94 C 1083.29 481.90 1079.75 489.60 1074.20 495.23 C 1064.88 504.92 1048.75 507.83 1037.02 500.92 C 1029.51 496.63 1023.77 489.30 1021.53 480.94 C 1020.17 476.08 1020.69 471.01 1020.52 466.04 C 1020.04 383.69 1020.45 301.34 1020.34 218.99 C 1020.56 207.57 1019.74 196.07 1016.82 184.99 C 1012.26 166.38 1002.17 148.87 986.99 136.95 C 958.55 114.33 916.84 111.49 884.71 127.76 C 870.83 134.72 858.96 145.66 851.14 159.09 C 840.75 176.79 836.93 197.68 837.25 218.01 C 837.22 303.34 837.33 388.68 837.16 474.01 C 837.14 490.71 821.50 505.31 804.93 504.84 C 800.31 504.78 795.94 503.08 791.76 501.30 C 782.00 496.96 775.37 486.67 775.06 476.04 C 775.10 390.04 775.10 304.03 775.06 218.03 C 774.00 183.83 781.92 148.73 800.96 120.00 C 825.35 83.41 866.72 58.73 910.53 54.75 Z" id="svg_3" fill-opacity="1"></path><path fill="#ffffff" opacity="1.00" d=" M 1292.62 54.86 C 1332.09 51.65 1372.50 61.09 1406.42 81.56 C 1434.79 98.75 1458.32 123.62 1474.43 152.58 C 1494.18 187.99 1504.18 228.52 1504.95 268.96 C 1505.81 294.68 1504.96 320.59 1500.19 345.93 C 1493.59 380.31 1480.11 413.75 1458.42 441.44 C 1437.50 468.62 1409.29 490.31 1377.12 502.43 C 1356.38 510.45 1334.27 514.98 1312.03 515.56 C 1273.62 516.43 1234.86 505.60 1202.85 484.26 C 1174.09 465.27 1150.63 438.49 1135.30 407.64 C 1117.43 371.90 1110.30 331.70 1109.09 292.02 C 1108.63 245.71 1116.21 198.32 1138.12 157.05 C 1155.32 123.97 1182.50 96.24 1215.01 78.05 C 1238.73 64.60 1265.49 57.01 1292.62 54.86 M 1291.58 118.86 C 1251.13 123.36 1213.28 147.64 1192.95 182.99 C 1174.85 212.55 1168.34 247.73 1168.17 282.00 C 1168.24 302.18 1169.28 322.58 1174.42 342.18 C 1179.41 361.65 1187.65 380.36 1199.35 396.74 C 1218.47 423.81 1248.34 443.23 1281.02 449.09 C 1298.63 452.29 1316.79 452.09 1334.44 449.25 C 1369.31 442.45 1400.65 420.46 1419.78 390.64 C 1428.32 377.15 1434.63 362.31 1439.12 347.02 C 1450.17 308.89 1449.43 267.97 1440.28 229.54 C 1432.50 197.78 1416.23 167.30 1390.77 146.27 C 1363.59 123.47 1326.45 114.58 1291.58 118.86 Z" id="svg_4" fill-opacity="1"></path><path fill="#ffffff" opacity="1.00" d=" M 59.86 592.70 C 65.26 576.98 81.51 566.12 98.00 566.25 C 545.66 566.26 993.31 566.25 1440.97 566.25 C 1448.52 566.32 1456.19 565.77 1463.58 567.71 C 1474.22 570.25 1484.44 576.78 1489.23 586.91 C 1492.60 592.68 1494.21 599.31 1494.29 605.98 C 1494.20 663.66 1494.28 721.34 1494.25 779.02 C 1494.17 783.36 1494.60 787.74 1493.93 792.06 C 1492.27 803.34 1485.56 813.93 1475.71 819.79 C 1470.49 822.97 1464.38 824.13 1458.46 825.21 C 1447.41 827.14 1436.17 826.22 1425.03 826.42 C 1401.80 826.25 1378.56 826.38 1355.34 826.49 C 1352.79 816.72 1350.62 806.06 1354.24 796.28 C 1356.15 790.95 1360.46 786.90 1365.39 784.31 C 1380.37 775.45 1396.87 769.23 1411.12 759.11 C 1419.80 752.97 1427.47 745.11 1432.26 735.55 C 1436.81 726.29 1436.57 715.27 1433.11 705.70 C 1428.62 693.28 1419.78 682.44 1408.54 675.51 C 1404.14 673.64 1399.10 673.83 1394.49 674.66 C 1384.34 676.82 1376.12 683.76 1369.06 690.99 C 1362.42 698.05 1355.99 705.32 1350.13 713.05 C 1345.41 719.15 1339.34 724.91 1331.39 726.09 C 1332.93 695.77 1345.80 667.33 1347.24 637.00 C 1347.61 626.99 1346.92 616.77 1343.84 607.20 C 1336.98 591.00 1314.88 584.83 1299.76 592.79 C 1294.14 595.72 1290.14 601.12 1288.37 607.14 C 1283.68 620.61 1281.84 634.87 1280.96 649.04 C 1280.43 656.39 1280.57 663.80 1279.44 671.10 C 1277.42 685.96 1272.70 700.28 1270.28 715.06 C 1268.97 681.96 1272.13 648.80 1269.51 615.73 C 1268.67 620.53 1267.98 625.37 1267.33 630.21 C 1268.44 616.73 1267.15 601.73 1258.25 590.92 C 1249.75 587.73 1240.33 588.22 1231.54 589.78 C 1225.66 590.55 1220.89 594.63 1217.17 598.97 C 1210.58 606.85 1207.95 617.06 1206.08 626.93 C 1202.72 644.40 1203.07 662.26 1202.30 679.96 C 1199.55 697.10 1199.00 714.48 1196.87 731.69 C 1193.32 704.56 1197.95 677.03 1193.76 649.94 C 1191.96 635.20 1191.18 619.62 1183.43 606.53 C 1181.06 602.73 1178.26 599.06 1174.63 596.42 C 1160.24 593.11 1144.86 601.74 1138.66 614.83 C 1134.93 621.94 1135.04 630.15 1134.46 637.95 C 1132.33 677.07 1138.61 716.38 1133.35 755.37 C 1127.56 734.66 1129.11 712.67 1123.14 691.98 C 1120.62 683.09 1116.36 674.64 1110.24 667.67 C 1103.89 667.39 1097.25 666.04 1091.07 668.08 C 1086.18 672.82 1083.41 679.38 1081.95 685.95 C 1079.44 697.79 1080.73 709.94 1080.28 721.93 C 1079.72 757.51 1088.31 792.37 1097.77 826.41 C 986.51 826.48 875.25 826.31 763.99 826.33 C 552.01 826.29 340.03 826.54 128.05 826.33 C 113.01 826.24 97.47 827.82 82.95 822.92 C 67.95 818.07 57.91 802.50 57.91 787.00 C 58.16 729.34 57.84 671.67 58.00 614.01 C 58.26 606.90 57.28 599.51 59.86 592.70 M 283.07 609.00 C 259.09 653.88 234.68 698.54 211.36 743.76 C 185.94 700.18 164.22 654.57 139.43 610.64 C 137.70 607.31 134.64 604.64 130.93 603.83 C 124.31 602.29 117.58 604.65 111.67 607.49 C 110.68 612.11 110.49 616.93 111.69 621.54 C 114.24 631.76 120.85 640.21 125.67 649.40 C 130.96 660.23 137.00 670.67 142.51 681.39 C 161.60 717.60 180.08 754.15 200.88 789.42 C 207.37 789.94 214.42 791.52 220.54 788.50 C 224.21 786.72 225.55 782.65 227.39 779.33 C 254.14 729.31 280.51 679.09 307.35 629.13 C 308.87 626.19 310.85 623.35 311.24 619.99 C 311.71 615.92 311.03 611.84 310.95 607.78 C 305.43 604.86 299.24 602.66 292.92 603.21 C 288.99 603.53 285.09 605.54 283.07 609.00 M 366.27 610.17 C 364.44 622.02 364.73 634.08 364.88 646.04 C 365.55 688.04 364.03 730.05 365.33 772.04 C 365.71 776.51 365.24 781.13 366.27 785.52 C 372.66 789.85 381.15 792.11 388.59 789.33 C 392.06 787.85 395.52 784.92 396.13 781.04 C 397.32 724.07 396.47 667.08 396.51 610.11 C 389.00 601.64 372.85 599.75 366.27 610.17 M 502.40 608.51 C 490.97 614.54 480.24 624.42 477.72 637.60 C 476.73 645.67 477.25 654.34 481.38 661.55 C 487.23 671.98 497.63 679.30 508.80 683.12 C 518.68 685.59 528.97 685.47 539.00 687.01 C 553.14 688.70 566.80 696.24 574.94 708.05 C 580.79 716.19 581.40 727.04 579.21 736.55 C 577.24 744.88 571.14 751.41 564.52 756.47 C 549.86 767.45 530.12 770.70 512.48 766.28 C 502.11 763.58 491.94 758.42 485.18 749.89 C 481.17 745.19 477.85 739.71 472.79 736.05 C 468.05 735.14 463.16 735.29 458.36 735.07 C 455.70 737.42 453.01 739.74 450.35 742.09 C 450.51 746.45 450.30 750.84 450.67 755.20 C 454.21 761.14 458.86 766.41 463.72 771.32 C 471.08 778.71 480.35 783.79 489.78 788.05 C 508.85 795.81 529.98 794.75 550.07 792.92 C 565.11 790.12 579.27 782.90 590.68 772.76 C 602.68 762.08 611.44 747.20 612.81 731.01 C 613.66 718.13 609.51 705.23 602.31 694.62 C 592.50 680.12 577.55 669.43 561.01 663.89 C 545.03 657.50 526.47 661.87 511.21 653.16 C 510.82 647.02 510.95 640.87 511.62 634.76 C 518.77 632.40 526.25 629.12 533.93 630.77 C 542.86 632.66 546.69 643.44 555.95 644.56 C 562.12 645.66 567.70 642.30 573.09 639.84 C 573.14 633.79 573.04 627.74 572.51 621.71 C 554.79 603.57 525.45 597.42 502.40 608.51 M 887.13 606.88 C 872.22 610.99 858.21 619.11 848.16 630.97 C 837.88 643.50 834.16 660.13 834.03 676.03 C 834.50 709.04 833.68 742.06 834.40 775.07 C 834.27 778.75 834.95 782.68 837.56 785.47 C 843.95 792.37 856.27 792.62 862.93 785.97 C 865.85 783.11 866.51 778.89 866.49 774.99 C 867.13 758.23 866.44 741.45 866.68 724.68 C 871.74 723.87 876.84 722.74 882.00 723.16 C 910.03 724.86 938.25 720.66 966.16 724.79 C 967.71 746.12 962.78 768.19 969.92 788.90 C 978.63 790.16 989.09 791.97 996.35 785.72 C 997.64 749.83 996.63 713.90 997.00 678.00 C 996.87 665.98 997.52 653.20 991.74 642.23 C 981.45 622.78 961.26 610.07 940.11 605.50 C 922.66 601.98 904.33 602.14 887.13 606.88 M 654.39 606.49 C 651.60 608.30 649.53 611.04 647.09 613.30 C 647.04 617.54 647.12 621.78 647.17 626.03 C 651.71 629.70 657.21 632.09 662.99 632.96 C 675.94 635.00 689.00 631.86 702.00 633.02 C 703.16 637.94 704.11 642.96 704.01 648.04 C 704.27 693.91 703.20 739.79 704.60 785.64 C 711.55 790.37 720.36 790.93 728.45 789.68 C 730.52 787.30 732.71 785.03 734.91 782.77 C 735.58 733.01 734.91 683.26 735.26 633.51 C 752.98 631.93 771.58 636.21 788.58 629.51 C 793.53 623.21 792.76 612.61 786.14 607.75 C 782.92 605.31 778.74 605.95 775.00 605.99 C 734.80 605.82 694.56 605.06 654.39 606.49 Z" id="svg_5" fill-opacity="1"></path><path fill="#ffffff" opacity="1.00" d=" M 894.86 633.55 C 911.78 627.45 931.47 628.80 947.04 637.98 C 954.38 642.35 961.17 648.57 963.86 656.91 C 968.03 669.29 965.66 682.50 966.00 695.27 C 943.18 699.98 919.89 695.04 896.89 697.06 C 886.09 697.98 875.12 697.19 864.65 694.34 C 866.97 681.74 864.83 668.51 869.08 656.25 C 873.03 644.81 884.03 637.65 894.86 633.55 Z" id="svg_6" fill-opacity="1"></path></g></g></svg> 